<?xml version="1.0" encoding="UTF-8" standalone="no"?>
<svg
   xmlns:dc="http://purl.org/dc/elements/1.1/"
   xmlns:cc="http://creativecommons.org/ns#"
   xmlns:rdf="http://www.w3.org/1999/02/22-rdf-syntax-ns#"
   xmlns:svg="http://www.w3.org/2000/svg"
   xmlns="http://www.w3.org/2000/svg"
   xmlns:sodipodi="http://sodipodi.sourceforge.net/DTD/sodipodi-0.dtd"
   xmlns:inkscape="http://www.inkscape.org/namespaces/inkscape"
   version="1.1"
   width="512"
   height="512"
   x="0"
   y="0"
   viewBox="0 0 36 36"
   style="enable-background:new 0 0 512 512"
   xml:space="preserve"
   class=""
   id="svg36"
   sodipodi:docname="50-percent.svg"
   inkscape:version="1.0.2 (e86c870879, 2021-01-15, custom)"><metadata
     id="metadata42"><rdf:RDF><cc:Work
         rdf:about=""><dc:format>image/svg+xml</dc:format><dc:type
           rdf:resource="http://purl.org/dc/dcmitype/StillImage" /></cc:Work></rdf:RDF></metadata><defs
     id="defs40" /><sodipodi:namedview
     pagecolor="#ffffff"
     bordercolor="#666666"
     borderopacity="1"
     objecttolerance="10"
     gridtolerance="10"
     guidetolerance="10"
     inkscape:pageopacity="0"
     inkscape:pageshadow="2"
     inkscape:window-width="1920"
     inkscape:window-height="1017"
     id="namedview38"
     showgrid="false"
     inkscape:zoom="1.6601562"
     inkscape:cx="140.04706"
     inkscape:cy="256"
     inkscape:window-x="-8"
     inkscape:window-y="-8"
     inkscape:window-maximized="1"
     inkscape:current-layer="svg36"
     inkscape:document-rotation="0" /><path
     d="m 3.833194,17.93 c -0.578,-0.547 -0.939,-1.321 -0.939,-2.18 v -7 c 0,-1.105 0.895,-2 2,-2 h 7 c 0.858,0 1.633,0.361 2.18,0.938 l 10.773,11.188 c 0.339,0.358 0.547,0.842 0.547,1.374 0,0.552 -0.224,1.052 -0.586,1.414 l -7,7 c -0.362,0.362 -0.862,0.586 -1.414,0.586 -0.532,0 -1.016,-0.208 -1.374,-0.547 z"
     fill="#ff2400"
     data-original="#f3f3f1"
     class=""
     id="path12"
     style="fill:#e84846;fill-opacity:1" /><circle
     cx="-7.1441941"
     cy="11"
     fill="#00000000"
     r="1.25"
     data-original="#2fdf84"
     class=""
     id="circle14"
     transform="scale(-1,1)" /><path
     d="m 15.558194,28.664 7,-7 c 0.362,-0.362 0.586,-0.862 0.586,-1.414 0,-0.532 -0.208,-1.016 -0.547,-1.374 l -10.773,-11.188 c -0.547,-0.578 -1.321,-0.938 -2.18,-0.938 h 2.25 c 0.858,0 1.633,0.361 2.18,0.938 l 10.773,11.188 c 0.339,0.358 0.547,0.842 0.547,1.374 0,0.552 -0.224,1.052 -0.586,1.414 l -7,7 c -0.362,0.362 -0.862,0.586 -1.414,0.586 -0.417,0 -0.802,-0.131 -1.122,-0.349 0.102,-0.071 0.199,-0.149 0.286,-0.237 z"
     fill="#d5dbe1"
     data-original="#d5dbe1"
     class=""
     id="path16" /><path
     d="m 6.144194,11 c 0,-0.19 -0.049,-0.365 -0.125,-0.526 0.2,-0.425 0.625,-0.724 1.125,-0.724 0.69,0 1.25,0.56 1.25,1.25 0,0.69 -0.56,1.25 -1.25,1.25 -0.5,0 -0.925,-0.299 -1.125,-0.724 0.076,-0.161 0.125,-0.336 0.125,-0.526 z"
     fill="#00000000"
     data-original="#00b871"
     class=""
     id="path18" /><path
     d="m 9.1555,30 h -0.5 c -0.965,0 -1.75,-0.785 -1.75,-1.75 v -3.5 c 0,-0.965 0.785,-1.75 1.75,-1.75 h 0.5 c 0.965,0 1.75,0.785 1.75,1.75 v 3.5 c 0,0.965 -0.785,1.75 -1.75,1.75 z m -0.5,-5.5 c -0.138,0 -0.25,0.112 -0.25,0.25 v 3.5 c 0,0.138 0.112,0.25 0.25,0.25 h 0.5 c 0.138,0 0.25,-0.112 0.25,-0.25 v -3.5 c 0,-0.138 -0.112,-0.25 -0.25,-0.25 z"
     fill="#000000"
     data-original="#000000"
     class=""
     id="path20" /><path
     d="m 11.656806,29.63611 3.122388,-6.86322 1.365,0.621 -3.122388,6.86322 z"
     fill="#000000"
     data-original="#000000"
     class=""
     id="path22"
     style="stroke-width:0.999748" /><path
     d="m 12.6555,24.5 c -0.414,0 -0.75,-0.336 -0.75,-0.75 0,-0.414 0.336,-0.75 0.75,-0.75 0.414,0 0.75,0.336 0.75,0.75 0,0.414 -0.336,0.75 -0.75,0.75 z"
     fill="#000000"
     data-original="#000000"
     class=""
     id="path24" /><path
     d="m 15.1555,30 c -0.414,0 -0.75,-0.336 -0.75,-0.75 0,-0.414 0.336,-0.75 0.75,-0.75 0.414,0 0.75,0.336 0.75,0.75 0,0.414 -0.336,0.75 -0.75,0.75 z"
     fill="#000000"
     data-original="#000000"
     class=""
     id="path26" /><path
     d="m 3.6555,30 h -1.75 v -1.5 h 1.75 c 0.413,0 0.75,-0.336 0.75,-0.75 0,-0.414 -0.337,-0.75 -0.75,-0.75 h -1 c -0.414,0 -0.75,-0.336 -0.75,-0.75 v -2.5 c 0,-0.414 0.336,-0.75 0.75,-0.75 h 3.25 v 1.5 h -2.5 v 1 h 0.25 c 1.24,0 2.25,1.009 2.25,2.25 0,1.241 -1.01,2.25 -2.25,2.25 z"
     fill="#000000"
     data-original="#000000"
     class=""
     id="path28" /><path
     d="m 18.944194,28.58 6.39,-6.39 c 0.52,-0.505 0.81,-1.197 0.81,-1.94 0,-0.704 -0.277,-1.394 -0.762,-1.893 L 14.614194,7.17 c -0.713,-0.753 -1.681,-1.17 -2.72,-1.17 h -7 c -1.517,0 -2.75,1.233 -2.75,2.75 v 7 c 0,1.039 0.417,2.006 1.174,2.724 l 3.076,2.957 1.039,-1.081 -3.079,-2.96 c -0.459,-0.436 -0.71,-1.017 -0.71,-1.64 v -7 c 0,-0.689 0.561,-1.25 1.25,-1.25 h 7 c 0.623,0 1.204,0.25 1.636,0.706 l 10.774,11.194 c 0.217,0.224 0.34,0.533 0.34,0.85 0,0.335 -0.129,0.645 -0.363,0.873 l -6.397,6.397 z"
     fill="#000000"
     data-original="#000000"
     class=""
     id="path30" /><path
     d="m 7.144194,13 c 1.103,0 2,-0.897 2,-2 0,-1.103 -0.897,-2 -2,-2 -1.103,0 -2,0.897 -2,2 0,1.103 0.897,2 2,2 z m 0,-2.5 c 0.275,0 0.5,0.224 0.5,0.5 0,0.276 -0.225,0.5 -0.5,0.5 -0.275,0 -0.5,-0.224 -0.5,-0.5 0,-0.276 0.225,-0.5 0.5,-0.5 z"
     fill="#000000"
     data-original="#000000"
     class=""
     id="path32" /></svg>
