<?xml version="1.0" encoding="UTF-8" standalone="no"?>
<svg
   xmlns:dc="http://purl.org/dc/elements/1.1/"
   xmlns:cc="http://creativecommons.org/ns#"
   xmlns:rdf="http://www.w3.org/1999/02/22-rdf-syntax-ns#"
   xmlns:svg="http://www.w3.org/2000/svg"
   xmlns="http://www.w3.org/2000/svg"
   xmlns:sodipodi="http://sodipodi.sourceforge.net/DTD/sodipodi-0.dtd"
   xmlns:inkscape="http://www.inkscape.org/namespaces/inkscape"
   version="1.1"
   id="svg2"
   width="133.44"
   height="188.16"
   viewBox="0 0 133.44 188.16"
   sodipodi:docname="logo.svg"
   inkscape:version="1.0.2 (e86c870879, 2021-01-15, custom)">
  <metadata
     id="metadata8">
    <rdf:RDF>
      <cc:Work
         rdf:about="">
        <dc:format>image/svg+xml</dc:format>
        <dc:type
           rdf:resource="http://purl.org/dc/dcmitype/StillImage" />
        <dc:title />
      </cc:Work>
    </rdf:RDF>
  </metadata>
  <defs
     id="defs6" />
  <sodipodi:namedview
     pagecolor="#ffffff"
     bordercolor="#666666"
     borderopacity="1"
     objecttolerance="10"
     gridtolerance="10"
     guidetolerance="10"
     inkscape:pageopacity="0"
     inkscape:pageshadow="2"
     inkscape:window-width="1920"
     inkscape:window-height="1017"
     id="namedview4"
     showgrid="false"
     inkscape:zoom="3.1943067"
     inkscape:cx="110.51956"
     inkscape:cy="121.20468"
     inkscape:window-x="-8"
     inkscape:window-y="-8"
     inkscape:window-maximized="1"
     inkscape:current-layer="g10"
     inkscape:document-rotation="0" />
  <g
     inkscape:groupmode="layer"
     inkscape:label="Image"
     id="g10">
    <g
       id="g885"
       style="stroke:#ffffff;stroke-opacity:1">
      <path
         style="fill:none;fill-opacity:1;fill-rule:evenodd;stroke:#ffffff;stroke-width:5.202;stroke-linecap:butt;stroke-linejoin:miter;stroke-miterlimit:4;stroke-dasharray:none;stroke-opacity:1"
         d="M 78.388374,154.26351 C 84.572578,48.130456 84.572578,47.475314 84.572578,47.475314 c 0,0 1.546053,-20.30941 -16.785708,-19.217506 -18.331761,1.091904 -23.190779,15.723414 -23.190779,15.723414 0,0 0.883459,6.333042 1.104319,9.171992 0.220867,2.83895 3.754699,101.110296 3.754699,101.110296 z"
         id="path843" />
      <path
         style="fill:none;fill-opacity:1;fill-rule:evenodd;stroke:#ffffff;stroke-width:5.202;stroke-linecap:butt;stroke-linejoin:miter;stroke-miterlimit:4;stroke-dasharray:none;stroke-opacity:1"
         d="m 81.922206,111.46088 c 0,0 20.098674,-0.87353 21.644724,-2.62058 1.54606,-1.74704 16.56484,-57.870894 1.76692,-55.250325 -14.797927,2.62057 -15.46052,12.229322 -15.46052,12.229322 l 1.766913,35.377683 -8.834577,-0.87353 z"
         id="path845" />
      <path
         style="fill:none;fill-opacity:1;fill-rule:evenodd;stroke:#ffffff;stroke-width:5.202;stroke-linecap:butt;stroke-linejoin:miter;stroke-miterlimit:4;stroke-dasharray:none;stroke-opacity:1"
         d="M 26.485196,154.26351 H 103.56693"
         id="path847" />
      <path
         style="fill:none;fill-opacity:1;fill-rule:evenodd;stroke:#ffffff;stroke-width:5.202;stroke-linecap:butt;stroke-linejoin:miter;stroke-miterlimit:4;stroke-dasharray:none;stroke-opacity:1"
         d="m 31.344215,154.70026 c 0,0 -4.196426,-17.25207 -6.405072,-18.1256 -2.208646,-0.87352 6.405072,3.49409 6.405072,3.49409 l -2.208646,-10.70065 8.171991,12.22932 1.987779,-5.24114 2.871239,3.4941 1.76692,-16.37856 3.975558,3.93085 v 1.96543"
         id="path849" />
      <path
         style="fill:none;fill-opacity:1;fill-rule:evenodd;stroke:#ffffff;stroke-width:5.202;stroke-linecap:butt;stroke-linejoin:miter;stroke-miterlimit:4;stroke-dasharray:none;stroke-opacity:1"
         d="m 80.59702,134.60924 4.417292,-6.55143 2.650372,7.42495 6.625938,-9.82714 0.88346,5.45953 5.079888,-4.36762 -0.22087,9.82713 4.63816,-3.49409 c 0,0 -8.834585,19.43589 -5.963346,21.18294 2.871236,1.74704 -1.325186,0 -1.325186,0"
         id="path851" />
      <path
         style="fill:none;fill-opacity:1;fill-rule:evenodd;stroke:#ffffff;stroke-width:5.202;stroke-linecap:butt;stroke-linejoin:miter;stroke-miterlimit:4;stroke-dasharray:none;stroke-opacity:1"
         d="m 67.566003,28.476189 c 0,0 8.613725,3.05733 5.742486,35.377682 -2.871239,32.320351 -1.987787,89.754489 -1.987787,89.754489 l 0.220867,0.65515"
         id="path853" />
      <path
         style="fill:none;fill-opacity:1;fill-rule:evenodd;stroke:#ffffff;stroke-width:5.202;stroke-linecap:butt;stroke-linejoin:miter;stroke-miterlimit:4;stroke-dasharray:none;stroke-opacity:1"
         d="m 60.056613,29.786473 c 0,0 -3.533833,0.873523 -3.092106,39.526917 0.441726,38.6534 1.325186,84.95012 1.325186,84.95012"
         id="path855" />
      <path
         style="fill:none;fill-opacity:1;fill-rule:evenodd;stroke:#ffffff;stroke-width:5.202;stroke-linecap:butt;stroke-linejoin:miter;stroke-miterlimit:4;stroke-dasharray:none;stroke-opacity:1"
         d="m 105.64493,54.90026 c 0,0 -1.32519,51.10109 -5.52162,51.53786 -4.196429,0.43676 -17.227438,0.87352 -17.227438,0.87352"
         id="path884" />
    </g>
  </g>
</svg>
