<?xml version="1.0" encoding="UTF-8" standalone="no"?>
<svg
   xmlns:dc="http://purl.org/dc/elements/1.1/"
   xmlns:cc="http://creativecommons.org/ns#"
   xmlns:rdf="http://www.w3.org/1999/02/22-rdf-syntax-ns#"
   xmlns:svg="http://www.w3.org/2000/svg"
   xmlns="http://www.w3.org/2000/svg"
   xmlns:sodipodi="http://sodipodi.sourceforge.net/DTD/sodipodi-0.dtd"
   xmlns:inkscape="http://www.inkscape.org/namespaces/inkscape"
   width="240.862mm"
   height="77.316879mm"
   viewBox="0 0 240.862 77.316879"
   version="1.1"
   id="svg8"
   sodipodi:docname="sale.svg"
   inkscape:version="1.0.2 (e86c870879, 2021-01-15, custom)">
  <defs
     id="defs2" />
  <sodipodi:namedview
     id="base"
     pagecolor="#ffffff"
     bordercolor="#666666"
     borderopacity="1.0"
     inkscape:pageopacity="0.0"
     inkscape:pageshadow="2"
     inkscape:zoom="0.49497475"
     inkscape:cx="266.4701"
     inkscape:cy="207.79181"
     inkscape:document-units="mm"
     inkscape:current-layer="layer1"
     inkscape:document-rotation="0"
     showgrid="false"
     inkscape:window-width="1920"
     inkscape:window-height="1017"
     inkscape:window-x="-8"
     inkscape:window-y="-8"
     inkscape:window-maximized="1" />
  <metadata
     id="metadata5">
    <rdf:RDF>
      <cc:Work
         rdf:about="">
        <dc:format>image/svg+xml</dc:format>
        <dc:type
           rdf:resource="http://purl.org/dc/dcmitype/StillImage" />
        <dc:title></dc:title>
      </cc:Work>
    </rdf:RDF>
  </metadata>
  <g
     inkscape:label="Слой 1"
     inkscape:groupmode="layer"
     id="layer1"
     transform="translate(-34.318113,-87.664401)">
    <g
       id="g892"
       transform="matrix(0.72519599,0,0,0.71732101,57.645999,33.216479)">
      <g
         id="g870">
        <path
           id="path858"
           style="fill:#c41614;fill-opacity:1;stroke-width:0.964999"
           inkscape:transform-center-x="-1.0370899e-06"
           inkscape:transform-center-y="-1.3940105e-06"
           d="m 92.131045,183.5056 c 0,0 0,0 -120.270913,0 -17.315146,0 26.8027798,-27.19643 26.7777758,-44.51156 -0.02488,-17.23256 -44.0102648,-44.222133 -26.7777758,-44.222133 120.270913,0 120.270913,0 120.270913,0 z"
           sodipodi:nodetypes="csascc" />
        <path
           id="rect833"
           style="fill:#e84846;stroke-width:0.510132"
           d="m 30.270598,75.904541 c 58.556598,0 58.556598,0 58.556598,0 v 88.733479 c 0,0 0,0 -58.556598,0 -14.400654,0 -14.400654,-88.733479 0,-88.733479 z"
           sodipodi:nodetypes="sccss" />
        <path
           style="fill:#85100f;fill-opacity:1;stroke:#000000;stroke-width:0.264583px;stroke-linecap:butt;stroke-linejoin:miter;stroke-opacity:1"
           d="m 92.131043,183.5056 -61.662317,-18.86757 59.868373,0.53454 z"
           id="path861" />
        <path
           id="path864"
           style="fill:#e84846;stroke-width:0.510132"
           d="m 82.128964,75.904541 c 58.556826,0 58.556826,0 58.556826,0 v 88.733479 c 0,0 0,0 -58.556826,0 -14.400654,0 -14.400654,-88.733479 0,-88.733479 z"
           sodipodi:nodetypes="sccss" />
      </g>
      <g
         id="g880"
         transform="matrix(-1,0,0,1,267.79826,0)">
        <path
           id="path872"
           style="fill:#c41614;fill-opacity:1;stroke-width:0.964999"
           inkscape:transform-center-x="-1.0370899e-06"
           inkscape:transform-center-y="-1.3940105e-06"
           d="m 92.131045,183.5056 c 0,0 0,0 -120.270913,0 -17.315146,0 26.8027798,-27.19643 26.7777758,-44.51156 -0.02488,-17.23256 -44.0102648,-44.222133 -26.7777758,-44.222133 120.270913,0 120.270913,0 120.270913,0 z"
           sodipodi:nodetypes="csascc" />
        <path
           id="path874"
           style="fill:#e84846;stroke-width:0.510132"
           d="m 30.270598,75.904541 c 58.556598,0 58.556598,0 58.556598,0 v 88.733479 c 0,0 0,0 -58.556598,0 -14.400654,0 -14.400654,-88.733479 0,-88.733479 z"
           sodipodi:nodetypes="sccss" />
        <path
           style="fill:#85100f;fill-opacity:1;stroke:#000000;stroke-width:0.264583px;stroke-linecap:butt;stroke-linejoin:miter;stroke-opacity:1"
           d="m 92.131043,183.5056 -61.662317,-18.86757 59.868373,0.53454 z"
           id="path876" />
        <path
           id="path878"
           style="fill:#e84846;stroke-width:0.510132"
           d="m 82.128964,75.904541 c 58.556826,0 58.556826,0 58.556826,0 v 88.733479 c 0,0 0,0 -58.556826,0 -14.400654,0 -14.400654,-88.733479 0,-88.733479 z"
           sodipodi:nodetypes="sccss" />
      </g>
    </g>
    <text
       xml:space="preserve"
       style="font-size:10.5833px;line-height:0;font-family:'Segoe Print';-inkscape-font-specification:'Segoe Print';fill:#ffffff;fill-opacity:1;stroke-width:0.264583"
       x="91.940727"
       y="137.37654"
       id="text896"><tspan
         sodipodi:role="line"
         id="tspan894"
         x="91.940727"
         y="137.37654"
         style="font-style:normal;font-variant:normal;font-weight:normal;font-stretch:normal;font-size:58.2083px;line-height:2.05;font-family:'Cambria Math';-inkscape-font-specification:'Cambria Math';fill:#ffffff;fill-opacity:1;stroke-width:0.264583">SALE</tspan></text>
  </g>
</svg>
